<?xml version="1.0" standalone="no"?>
<!DOCTYPE svg PUBLIC "-//W3C//DTD SVG 20010904//EN"
 "http://www.w3.org/TR/2001/REC-SVG-20010904/DTD/svg10.dtd">
<svg version="1.0" xmlns="http://www.w3.org/2000/svg"
 width="366.000000pt" height="366.000000pt" viewBox="0 0 366.000000 366.000000"
 preserveAspectRatio="xMidYMid meet">
<metadata>
Created by potrace 1.11, written by Peter Selinger 2001-2013
</metadata>
<g transform="translate(0.000000,366.000000) scale(0.100000,-0.100000)"
fill="#000000" stroke="none">
<path d="M1817 3020 c-281 -51 -516 -241 -626 -505 -17 -40 -31 -81 -31 -89 0
-13 -6 -15 -27 -9 -53 15 -165 7 -225 -16 -113 -44 -213 -170 -225 -285 l-6
-53 -62 -6 c-76 -7 -190 -46 -265 -90 -30 -17 -94 -70 -141 -117 -149 -148
-216 -321 -206 -530 15 -321 228 -578 544 -659 81 -21 97 -21 1251 -21 988 0
1180 2 1238 14 165 35 270 92 390 211 135 134 201 265 225 451 29 226 -53 458
-220 625 -42 42 -107 94 -146 117 -131 77 -311 120 -442 106 l-63 -6 0 76 c0
346 -262 674 -615 771 -70 19 -278 28 -348 15z"/>
</g>
</svg>
